<svg xmlns="http://www.w3.org/2000/svg" version="1.1" xmlns:xlink="http://www.w3.org/1999/xlink" xmlns:svgjs="http://svgjs.com/svgjs" width="1440" height="800" preserveAspectRatio="none" viewBox="0 0 1440 800"><g mask="url(&quot;#SvgjsMask1063&quot;)" fill="none"><path d="M723.518,751.342C757.486,751.506,786.177,727.898,802.176,697.934C817.234,669.732,815.607,636.268,799.798,608.48C783.799,580.358,755.871,559.965,723.518,559.671C690.69,559.373,660.894,578.459,644.799,607.072C629.014,635.133,630.745,668.917,646.166,697.18C662.325,726.795,689.781,751.179,723.518,751.342" fill="rgba(28, 83, 142, 0.4)" class="triangle-float2"></path><path d="M147.148,797.108C213.878,793.802,261.982,739.525,293.394,680.558C322.605,625.722,333.761,560.112,301.767,506.852C270.561,454.905,207.699,439.55,147.148,437.106C80.547,434.418,6.382,438.055,-30.715,493.433C-71.083,553.693,-63.215,633.824,-26.558,696.411C9.696,758.309,75.503,800.658,147.148,797.108" fill="rgba(28, 83, 142, 0.4)" class="triangle-float3"></path><path d="M1109.897,173.621C1147.501,174.598,1187.14,165.243,1207.218,133.432C1228.471,99.759,1225.68,56.374,1205.604,21.987C1185.698,-12.108,1149.368,-34.131,1109.897,-33.261C1071.794,-32.421,1039.585,-7.349,1021.231,26.052C1003.589,58.158,1002.091,97.19,1020.959,128.592C1039.302,159.12,1074.294,172.696,1109.897,173.621" fill="rgba(28, 83, 142, 0.4)" class="triangle-float1"></path><path d="M752.516,454.085C823.075,449.03,868.783,385.102,899.44,321.35C925.523,267.111,925.215,206.249,897.351,152.903C866.982,94.762,818.059,42.672,752.516,40.063C683.164,37.303,622.701,81.465,586.232,140.519C547.549,203.158,529.476,280.341,563.967,345.382C600.395,414.076,674.96,459.641,752.516,454.085" fill="rgba(28, 83, 142, 0.4)" class="triangle-float3"></path><path d="M470.004,90.896C504.902,87.865,524.774,54.229,540.836,23.1C555.168,-4.675,564.312,-36.189,549.884,-63.914C534.42,-93.629,503.471,-111.561,470.004,-113.011C433.69,-114.584,396.691,-102.054,377.165,-71.396C356.241,-38.544,354.749,3.773,374.089,37.581C393.556,71.611,430.946,94.288,470.004,90.896" fill="rgba(28, 83, 142, 0.4)" class="triangle-float1"></path><path d="M1256.531,937.327C1322.868,937.206,1369.195,878.909,1401.012,820.7C1431.225,765.426,1447.533,699.746,1416.295,645.044C1384.847,589.975,1319.941,566.794,1256.531,567.697C1194.848,568.576,1135.148,595.971,1104.459,649.485C1073.911,702.751,1082.45,766.936,1111.134,821.229C1142.186,880.005,1190.057,937.448,1256.531,937.327" fill="rgba(28, 83, 142, 0.4)" class="triangle-float1"></path></g><defs><mask id="SvgjsMask1063"><rect width="1440" height="800" fill="#ffffff"></rect></mask><style>
            @keyframes float1 {
                0%{transform: translate(0, 0)}
                50%{transform: translate(-10px, 0)}
                100%{transform: translate(0, 0)}
            }

            .triangle-float1 {
                animation: float1 5s infinite;
            }

            @keyframes float2 {
                0%{transform: translate(0, 0)}
                50%{transform: translate(-5px, -5px)}
                100%{transform: translate(0, 0)}
            }

            .triangle-float2 {
                animation: float2 4s infinite;
            }

            @keyframes float3 {
                0%{transform: translate(0, 0)}
                50%{transform: translate(0, -10px)}
                100%{transform: translate(0, 0)}
            }

            .triangle-float3 {
                animation: float3 6s infinite;
            }
        </style></defs></svg>