<svg xmlns="http://www.w3.org/2000/svg" version="1.1" xmlns:xlink="http://www.w3.org/1999/xlink" xmlns:svgjs="http://svgjs.com/svgjs" width="1440" height="800" preserveAspectRatio="none" viewBox="0 0 1440 800"><g mask="url(&quot;#SvgjsMask1011&quot;)" fill="none"><path d="M-80.77 679.2 a262.39 262.39 0 1 0 524.78 0 a262.39 262.39 0 1 0 -524.78 0z" fill="rgba(253, 133, 0, 0.35)" class="triangle-float1"></path><path d="M231.55 320.26 a206.06 206.06 0 1 0 412.12 0 a206.06 206.06 0 1 0 -412.12 0z" fill="rgba(253, 133, 0, 0.35)" class="triangle-float2"></path><path d="M-129.65 48.71 a214.6 214.6 0 1 0 429.2 0 a214.6 214.6 0 1 0 -429.2 0z" fill="rgba(253, 133, 0, 0.35)" class="triangle-float2"></path><path d="M1178.472,223.412C1216.453,222.746,1253.719,206.958,1272.624,174.009C1291.45,141.198,1286.626,100.886,1267.499,68.25C1248.605,36.011,1215.838,13.558,1178.472,13.355C1140.77,13.15,1107.388,35.086,1087.757,67.275C1067.196,100.99,1058.583,143.269,1078.421,177.414C1098.185,211.43,1139.137,224.102,1178.472,223.412" fill="rgba(253, 133, 0, 0.35)" class="triangle-float3"></path><path d="M503.5 734.83 a195.51 195.51 0 1 0 391.02 0 a195.51 195.51 0 1 0 -391.02 0z" fill="rgba(253, 133, 0, 0.35)" class="triangle-float1"></path><path d="M1369.841,898.403C1439.374,896.539,1486.582,836.095,1520.934,775.612C1554.728,716.111,1580.524,645.742,1547.327,585.906C1513.394,524.743,1439.786,503.069,1369.841,503.273C1300.315,503.475,1229.483,527.064,1194.135,586.934C1158.276,647.67,1169.379,722.676,1204.034,784.107C1239.384,846.772,1297.919,900.331,1369.841,898.403" fill="rgba(253, 133, 0, 0.35)" class="triangle-float3"></path></g><defs><mask id="SvgjsMask1011"><rect width="1440" height="800" fill="#ffffff"></rect></mask><style>
            @keyframes float1 {
                0%{transform: translate(0, 0)}
                50%{transform: translate(-10px, 0)}
                100%{transform: translate(0, 0)}
            }

            .triangle-float1 {
                animation: float1 5s infinite;
            }

            @keyframes float2 {
                0%{transform: translate(0, 0)}
                50%{transform: translate(-5px, -5px)}
                100%{transform: translate(0, 0)}
            }

            .triangle-float2 {
                animation: float2 4s infinite;
            }

            @keyframes float3 {
                0%{transform: translate(0, 0)}
                50%{transform: translate(0, -10px)}
                100%{transform: translate(0, 0)}
            }

            .triangle-float3 {
                animation: float3 6s infinite;
            }
        </style></defs></svg>